Coordinates
version=1
nRows=19
nColumns=36
inDegrees=yes

Units are S.I. units (second, meters, Newtons, ...)
If the header above contains a line with 'inDegrees', this indicates whether rotational values are in degrees (yes) or radians (no).

endheader
time	pelvis_tilt	pelvis_list	pelvis_rotation	pelvis_tx	pelvis_ty	pelvis_tz	hip_flexion_r	hip_adduction_r	hip_rotation_r	knee_angle_r	knee_angle_r_beta	ankle_angle_r	subtalar_angle_r	mtp_angle_r	hip_flexion_l	hip_adduction_l	hip_rotation_l	knee_angle_l	knee_angle_l_beta	ankle_angle_l	subtalar_angle_l	mtp_angle_l	lumbar_extension	lumbar_bending	lumbar_rotation	arm_flex_r	arm_add_r	arm_rot_r	elbow_flex_r	pro_sup_r	arm_flex_l	arm_add_l	arm_rot_l	elbow_flex_l	pro_sup_l
      1.90000000	      2.32251812	     -3.79742082	     14.50087019	      0.89594129	      1.00781927	      0.12307475	     35.93064435	     -1.37721264	      0.08158887	     26.47076535	      0.46200201	     -0.94919363	      1.36192074	     -7.49996137	      8.51835397	      3.22122620	     10.43960942	     22.39570452	      0.39087878	     14.80176846	     -8.39471838	     -7.49996137	    -12.41072847	     -1.32632617	     -1.21204239	     30.40466953	     -1.20812388	     55.78438826	    124.43293106	     86.23618873	     41.89860265	     -7.62002625	     65.41808059	    125.04716934	     89.28358122
      1.91666670	      2.05989316	     -3.68707208	     14.55925024	      0.89333796	      1.00740585	      0.12222266	     36.24088465	     -1.55194570	      0.05261091	     26.35871316	      0.46004633	     -0.85328561	      1.48325352	     -7.49996206	      9.10261338	      3.47568467	     10.45886203	     22.99961122	      0.40141894	     15.05763256	     -8.64269816	     -7.49996206	    -12.06949046	     -1.52504115	     -1.31003630	     30.61276330	     -1.29519891	     55.72667249	    124.18163573	     85.68865770	     41.85237408	     -7.50939311	     65.58038973	    124.94600926	     88.76790354
      1.93333330	      2.83849495	     -3.55379342	     14.62786058	      0.89201193	      1.00861895	      0.12142494	     35.32969133	     -1.48624608	     -0.05742226	     26.04895865	      0.45464010	     -0.82274349	      1.56777719	     -7.49996490	      8.40308453	      3.41179058	     10.26776019	     23.20256102	      0.40496108	     15.00088675	     -8.78433837	     -7.49996490	    -13.37226281	     -1.36721260	     -1.13750329	     31.63939168	     -1.71327661	     56.20363694	    124.52462418	     85.86169640	     42.70144653	     -7.50598551	     66.55282948	    125.39056609	     88.65032987
      1.95000000	      2.98102591	     -3.53662934	     14.61962829	      0.89439177	      1.00882237	      0.12142724	     35.00030920	     -1.47633031	     -0.16461289	     25.70994165	      0.44872313	     -0.65811069	      1.67250254	     -7.49996712	      8.19337289	      3.37305071	     10.06864931	     23.24180947	      0.40564610	     15.00481161	     -8.84189861	     -7.49996712	    -13.53051031	     -1.27006302	     -1.11945360	     31.73850283	     -2.02680675	     56.10864616	    124.43173763	     86.13776094	     42.63522031	     -7.45048774	     67.01807927	    125.36622921	     88.72219784
      1.96666670	      3.17240721	     -3.55178098	     14.57570825	      0.89775213	      1.00945124	      0.12252221	     34.53439664	     -1.36946836	     -0.18259504	     25.35683390	      0.44256024	     -0.46709179	      1.62177523	     -7.49996858	      7.75352091	      3.23357168	      9.91048087	     23.04754113	      0.40225548	     15.03193047	     -8.83720678	     -7.49996858	    -13.67397823	     -1.13568961	     -1.00473087	     31.62929996	     -2.13287775	     56.12468748	    124.25639642	     86.63001326	     42.39882121	     -7.52346077	     67.33359185	    125.49197160	     89.01828506
      1.98333330	      3.19564924	     -3.60296328	     14.47086451	      0.90010023	      1.00988909	      0.12348920	     34.25362600	     -1.22761245	     -0.14069861	     25.06290378	      0.43743019	     -0.27428695	      1.49152927	     -7.49997017	      7.39508642	      3.05907286	      9.69790256	     22.67540111	      0.39576041	     15.11483452	     -8.65440072	     -7.49997017	    -13.57310787	     -1.02166086	     -0.92166594	     31.20318925	     -2.04743078	     55.98212328	    123.93503942	     91.51801478	     41.87361219	     -7.66443494	     67.30358442	    125.48400425	     93.18297896
      2.00000000	      3.30928351	     -3.53836940	     14.45152671	      0.90013880	      1.01025102	      0.12345884	     33.92651151	     -1.21703287	     -0.07961480	     24.80913858	      0.43300115	     -0.03559439	      1.48231476	     -7.49997352	      6.94609168	      3.05270670	      9.80160063	     22.21343375	      0.38769756	     15.07111618	     -8.64973015	     -7.49997352	    -13.63406868	     -1.00111133	     -0.95962292	     30.97884628	     -2.01131073	     56.16135308	    123.62627270	     90.96696378	     41.66488961	     -7.76529582	     67.62279426	    125.54671464	     92.47461487
      2.01666670	      3.35905439	     -3.36128863	     14.40306236	      0.89773337	      1.01050625	      0.12302709	     33.83607549	     -1.31407788	      0.09997684	     24.67022914	      0.43057673	      0.05673719	      1.49108517	     -7.49997559	      6.77814860	      3.22787837	      9.87969616	     22.04323092	      0.38472696	     15.41286396	     -8.35607020	     -7.49997559	    -13.83815054	     -1.05155012	     -0.97597243	     31.13062104	     -2.00948816	     56.13239415	    123.31157777	     90.07982910	     41.81544932	     -7.88085922	     68.02739147	    125.80654515	     91.61483901
      2.03333330	      3.23306722	     -3.09385764	     14.40949840	      0.89354307	      1.01099079	      0.12285153	     34.09974733	     -1.60997333	      0.25260383	     24.68007433	      0.43074856	      0.15736259	      1.65194275	     -7.49997626	      7.05189006	      3.63013883	     10.07875361	     22.19198271	      0.38732317	     15.56675984	     -8.34184124	     -7.49997626	    -14.14468597	     -1.22575835	     -1.01768509	     31.41071394	     -2.13416085	     55.96410376	    123.08015494	     89.84170689	     42.16896824	     -7.84399831	     68.54602335	    126.18427409	     91.42277278
      2.05000000	      3.11849189	     -2.76558652	     14.43381391	      0.88950968	      1.01139503	      0.12339740	     34.45265197	     -1.99482985	      0.36509465	     24.76277582	      0.43219197	      0.07327455	      1.84694694	     -7.49998228	      7.49388420	      4.13053600	     10.28528079	     22.57219456	      0.39395911	     15.71928727	     -8.36142762	     -7.49998228	    -14.66967382	     -1.47550291	     -0.77865470	     31.74306267	     -2.43992361	     55.39572932	    122.94793914	     91.73260700	     42.85858890	     -7.46553723	     69.12490631	    126.18166095	     92.79751611
      2.06666670	      2.91582266	     -2.42865524	     14.41773159	      0.88757996	      1.01049261	      0.12419423	     34.95284815	     -2.41170757	      0.46810284	     24.96760208	      0.43576686	     -0.02614891	      1.98976204	     -7.49998344	      8.05154412	      4.66357630	     10.43766320	     23.00769703	      0.40156007	     15.86029771	     -8.53904149	     -7.49998344	    -15.10821459	     -1.69247240	     -0.85537242	     32.21680848	     -2.46346337	     55.12683943	    122.78107080	     90.70558149	     43.35954041	     -7.37028830	     69.29995881	    126.47208394	     91.91390671
      2.08333330	      2.78282692	     -2.19061065	     14.37540566	      0.88809164	      1.00939415	      0.12484931	     35.27510789	     -2.68487288	      0.55373784	     25.14389730	      0.43884379	     -0.06450651	      2.00365810	     -7.49998438	      8.33628226	      5.03484328	     10.65033044	     23.21180355	      0.40512240	     16.02035614	     -8.59515709	     -7.49998438	    -15.39676286	     -1.85942909	     -0.89056673	     32.51942965	     -2.40237090	     54.81738349	    122.64311905	     89.82752330	     43.84440108	     -7.22186234	     69.31800493	    126.62463081	     91.16876550
      2.10000000	      2.82121594	     -2.07976232	     14.28636599	      0.89031806	      1.00878322	      0.12575814	     35.27614944	     -2.72811230	      0.62820142	     25.29559105	      0.44149135	      0.00607236	      1.80871417	     -7.49998497	      8.16862522	      5.12331379	     10.74256029	     23.08390968	      0.40289023	     16.20574276	     -8.47373049	     -7.49998497	    -15.60883193	     -1.89822347	     -0.82511032	     32.59323363	     -2.29905366	     54.56881795	    122.44207120	     89.56505587	     44.32600464	     -7.04728718	     69.39650560	    126.65694028	     90.97333101
      2.11666670	      2.80242276	     -2.07014484	     14.14774934	      0.89308403	      1.00858072	      0.12691852	     35.27061223	     -2.60666078	      0.79566578	     25.47506885	      0.44462383	      0.16469681	      1.49298544	     -7.49998547	      7.89573427	      5.04129405	     10.72618749	     22.76377633	      0.39730285	     16.23223931	     -8.39063029	     -7.49998547	    -15.56166686	     -1.89709932	     -0.71652755	     32.38377089	     -2.10067308	     54.49268642	    122.27509633	     89.36642884	     44.50874970	     -7.03110285	     69.56471122	    126.82357921	     90.83948431
      2.13333330	      2.64303479	     -2.14436028	     13.97339667	      0.89492183	      1.00867904	      0.12772294	     35.44245375	     -2.41060702	      0.99736277	     25.66934678	      0.44801462	      0.34225669	      1.29483606	     -7.49998577	      7.78230462	      4.88467796	     10.61139473	     22.44496198	      0.39173849	     16.11503200	     -8.39479039	     -7.49998577	    -15.26189616	     -1.87240774	     -0.63631302	     32.00282882	     -1.87291067	     54.55724935	    122.12459169	     89.04802784	     44.35334873	     -7.08282669	     69.79617007	    127.06965715	     90.60319596
      2.15000000	      2.80569864	     -2.15392854	     13.79184975	      0.89509020	      1.00899038	      0.12817107	     35.30987753	     -2.18677632	      1.26186828	     25.78207645	      0.44998212	      0.45469831	      1.03953789	     -7.49998643	      7.41063695	      4.70531026	     10.38999024	     22.18803254	      0.38725422	     16.08087539	     -8.28386758	     -7.49998643	    -15.51028422	     -1.87476792	     -0.45337171	     31.89381680	     -1.76820492	     54.61623559	    122.00922994	     88.71330706	     44.58623803	     -7.05176856	     70.15880253	    127.25651881	     90.30676235
      2.16666670	      2.58719505	     -2.21034773	     13.64117837	      0.89495527	      1.00811818	      0.12823933	     35.66885251	     -2.07829883	      1.41838183	     25.92029895	      0.45239456	      0.68519466	      1.06552018	     -7.49998707	      7.56045213	      4.62276750	     10.23108848	     22.08517527	      0.38545902	     16.11445850	     -8.23907712	     -7.49998707	    -15.28466271	     -1.89567377	     -0.38815622	     31.56467884	     -1.64497685	     54.68358679	    121.89040040	     88.10749861	     44.46635176	     -7.05749154	     70.36302431	    127.31181297	     89.66621877
      2.18333330	      2.71369531	     -2.16727324	     13.48807872	      0.89450315	      1.00769788	      0.12849989	     35.71152313	     -1.96086136	      1.66049823	     26.04559335	      0.45458136	      0.94442936	      1.07899952	     -7.49998829	      7.38035100	      4.57701780	     10.06464411	     22.00821249	      0.38411577	     16.16063215	     -8.24123728	     -7.49998829	    -15.63536886	     -1.95185452	     -0.26464986	     31.74392373	     -1.64028023	     54.80052759	    121.95903960	     87.61035187	     45.04901146	     -7.02198126	     70.71895283	    127.43162062	     89.10156953
      2.20000000	      2.52608451	     -2.17666596	     13.37909662	      0.89445038	      1.00769564	      0.12867515	     36.07889020	     -1.91124412	      1.76815636	     26.16474969	      0.45666103	      1.20574069	      1.16427563	     -7.49998903	      7.60411356	      4.57020795	      9.88412831	     22.06343343	      0.38507956	     16.28305077	     -8.22371567	     -7.49998903	    -15.59042455	     -1.99437138	     -0.23709304	     31.67890428	     -1.67095647	     54.78014887	    122.03389272	     87.02182179	     45.19696485	     -7.22078434	     70.74073691	    127.56650184	     88.46841331
